<svg width="42" height="42" viewBox="0 0 42 42" fill="none" xmlns="http://www.w3.org/2000/svg">
<circle cx="21" cy="21" r="21" fill="#F4D170"/>
<path d="M20.4531 9.02344C19.1953 9.17969 18.1445 9.69141 17.2695 10.5781C16.4922 11.3633 16.0469 12.1992 15.8164 13.2969C15.7227 13.7578 15.7227 14.7891 15.8164 15.25C16.0469 16.3477 16.4961 17.1875 17.2695 17.9688C18.0547 18.7617 18.9141 19.2266 20.0234 19.457C20.4805 19.5508 21.5078 19.5508 21.9844 19.457C23.0391 19.2461 23.9141 18.7773 24.6953 18.0039C25.4844 17.2266 25.9531 16.3594 26.1836 15.25C26.2773 14.7891 26.2773 13.7578 26.1836 13.2969C26.0312 12.5742 25.7539 11.9062 25.3555 11.3047C25.1094 10.9336 24.3477 10.168 23.9844 9.92969C23.3555 9.51172 22.6758 9.22656 22.0078 9.09766C21.6914 9.03516 20.7266 8.98828 20.4531 9.02344Z" fill="white"/>
<path d="M18.9022 20.7812C16.7147 21.0469 14.7421 22.2852 13.4725 24.1953C12.7265 25.3125 12.3007 26.6328 12.2265 28.043C12.203 28.4766 12.2069 28.5273 12.285 28.6797C12.3397 28.7891 12.4179 28.8672 12.5233 28.9219C12.6757 29 12.7343 29 20.9999 29C29.2655 29 29.3241 29 29.4765 28.9219C29.5819 28.8672 29.66 28.7891 29.7147 28.6797C29.7929 28.5273 29.7968 28.4766 29.7733 28.043C29.6718 26.1172 28.9374 24.4297 27.6015 23.0469C26.3358 21.7383 24.703 20.9414 22.9179 20.7578C22.328 20.6992 19.4452 20.7148 18.9022 20.7812Z" fill="white"/>
</svg>
